<svg width="100%" viewBox="0 0 680 160" role="img" xmlns="http://www.w3.org/2000/svg" style="">
  <title style="fill:rgb(0, 0, 0);stroke:none;color:rgb(255, 255, 255);stroke-width:1px;stroke-linecap:butt;stroke-linejoin:miter;opacity:1;font-family:&quot;Anthropic Sans&quot;, -apple-system, &quot;system-ui&quot;, &quot;Segoe UI&quot;, sans-serif;font-size:16px;font-weight:400;text-anchor:start;dominant-baseline:auto">Canadian five-party spatial voting diagram</title>
  <desc style="fill:rgb(0, 0, 0);stroke:none;color:rgb(255, 255, 255);stroke-width:1px;stroke-linecap:butt;stroke-linejoin:miter;opacity:1;font-family:&quot;Anthropic Sans&quot;, -apple-system, &quot;system-ui&quot;, &quot;Segoe UI&quot;, sans-serif;font-size:16px;font-weight:400;text-anchor:start;dominant-baseline:auto">Spatial voting diagram with five unlabelled candidate icons above a divider and voter icons below, all colored by party, with median voter M marked.</desc>

  <!-- Candidate icons -->
  <!-- NDP x=150 -->
  <circle cx="150" cy="22" r="9" fill="#F58220" style="fill:rgb(245, 130, 32);stroke:none;color:rgb(255, 255, 255);stroke-width:1px;stroke-linecap:butt;stroke-linejoin:miter;opacity:1;font-family:&quot;Anthropic Sans&quot;, -apple-system, &quot;system-ui&quot;, &quot;Segoe UI&quot;, sans-serif;font-size:16px;font-weight:400;text-anchor:start;dominant-baseline:auto"/>
  <path d="M138 49 Q138 38 150 38 Q162 38 162 49 L162 59 Q162 63 150 63 Q138 63 138 59 Z" fill="#F58220" style="fill:rgb(245, 130, 32);stroke:none;color:rgb(255, 255, 255);stroke-width:1px;stroke-linecap:butt;stroke-linejoin:miter;opacity:1;font-family:&quot;Anthropic Sans&quot;, -apple-system, &quot;system-ui&quot;, &quot;Segoe UI&quot;, sans-serif;font-size:16px;font-weight:400;text-anchor:start;dominant-baseline:auto"/>
  <!-- Green x=195 -->
  <circle cx="195" cy="22" r="9" fill="#3D9B35" style="fill:rgb(61, 155, 53);stroke:none;color:rgb(255, 255, 255);stroke-width:1px;stroke-linecap:butt;stroke-linejoin:miter;opacity:1;font-family:&quot;Anthropic Sans&quot;, -apple-system, &quot;system-ui&quot;, &quot;Segoe UI&quot;, sans-serif;font-size:16px;font-weight:400;text-anchor:start;dominant-baseline:auto"/>
  <path d="M183 49 Q183 38 195 38 Q207 38 207 49 L207 59 Q207 63 195 63 Q183 63 183 59 Z" fill="#3D9B35" style="fill:rgb(61, 155, 53);stroke:none;color:rgb(255, 255, 255);stroke-width:1px;stroke-linecap:butt;stroke-linejoin:miter;opacity:1;font-family:&quot;Anthropic Sans&quot;, -apple-system, &quot;system-ui&quot;, &quot;Segoe UI&quot;, sans-serif;font-size:16px;font-weight:400;text-anchor:start;dominant-baseline:auto"/>
  <!-- Lib x=248 -->
  <circle cx="248" cy="22" r="9" fill="#d71920" style="fill:rgb(215, 25, 32);stroke:none;color:rgb(255, 255, 255);stroke-width:1px;stroke-linecap:butt;stroke-linejoin:miter;opacity:1;font-family:&quot;Anthropic Sans&quot;, -apple-system, &quot;system-ui&quot;, &quot;Segoe UI&quot;, sans-serif;font-size:16px;font-weight:400;text-anchor:start;dominant-baseline:auto"/>
  <path d="M236 49 Q236 38 248 38 Q260 38 260 49 L260 59 Q260 63 248 63 Q236 63 236 59 Z" fill="#d71920" style="fill:rgb(215, 25, 32);stroke:none;color:rgb(255, 255, 255);stroke-width:1px;stroke-linecap:butt;stroke-linejoin:miter;opacity:1;font-family:&quot;Anthropic Sans&quot;, -apple-system, &quot;system-ui&quot;, &quot;Segoe UI&quot;, sans-serif;font-size:16px;font-weight:400;text-anchor:start;dominant-baseline:auto"/>
  <!-- Con x=463 -->
  <circle cx="463" cy="22" r="9" fill="#003F72" style="fill:rgb(0, 63, 114);stroke:none;color:rgb(255, 255, 255);stroke-width:1px;stroke-linecap:butt;stroke-linejoin:miter;opacity:1;font-family:&quot;Anthropic Sans&quot;, -apple-system, &quot;system-ui&quot;, &quot;Segoe UI&quot;, sans-serif;font-size:16px;font-weight:400;text-anchor:start;dominant-baseline:auto"/>
  <path d="M451 49 Q451 38 463 38 Q475 38 475 49 L475 59 Q475 63 463 63 Q451 63 451 59 Z" fill="#003F72" style="fill:rgb(0, 63, 114);stroke:none;color:rgb(255, 255, 255);stroke-width:1px;stroke-linecap:butt;stroke-linejoin:miter;opacity:1;font-family:&quot;Anthropic Sans&quot;, -apple-system, &quot;system-ui&quot;, &quot;Segoe UI&quot;, sans-serif;font-size:16px;font-weight:400;text-anchor:start;dominant-baseline:auto"/>
  <!-- PPC x=561 -->
  <circle cx="561" cy="22" r="9" fill="#6d04b8" style="fill:rgb(109, 4, 184);stroke:none;color:rgb(255, 255, 255);stroke-width:1px;stroke-linecap:butt;stroke-linejoin:miter;opacity:1;font-family:&quot;Anthropic Sans&quot;, -apple-system, &quot;system-ui&quot;, &quot;Segoe UI&quot;, sans-serif;font-size:16px;font-weight:400;text-anchor:start;dominant-baseline:auto"/>
  <path d="M549 49 Q549 38 561 38 Q573 38 573 49 L573 59 Q573 63 561 63 Q549 63 549 59 Z" fill="#6d04b8" style="fill:rgb(109, 4, 184);stroke:none;color:rgb(255, 255, 255);stroke-width:1px;stroke-linecap:butt;stroke-linejoin:miter;opacity:1;font-family:&quot;Anthropic Sans&quot;, -apple-system, &quot;system-ui&quot;, &quot;Segoe UI&quot;, sans-serif;font-size:16px;font-weight:400;text-anchor:start;dominant-baseline:auto"/>

  <!-- Divider -->
  <line x1="40" y1="78" x2="640" y2="78" stroke="#888" stroke-width="1" opacity="0.35" style="fill:rgb(0, 0, 0);stroke:rgb(136, 136, 136);color:rgb(255, 255, 255);stroke-width:1px;stroke-linecap:butt;stroke-linejoin:miter;opacity:0.35;font-family:&quot;Anthropic Sans&quot;, -apple-system, &quot;system-ui&quot;, &quot;Segoe UI&quot;, sans-serif;font-size:16px;font-weight:400;text-anchor:start;dominant-baseline:auto"/>

  <!-- Voter icons -->
  <!-- Voter 1 x=60 NDP -->
  <circle cx="60" cy="100" r="7" fill="#F58220" style="fill:rgb(245, 130, 32);stroke:none;color:rgb(255, 255, 255);stroke-width:1px;stroke-linecap:butt;stroke-linejoin:miter;opacity:1;font-family:&quot;Anthropic Sans&quot;, -apple-system, &quot;system-ui&quot;, &quot;Segoe UI&quot;, sans-serif;font-size:16px;font-weight:400;text-anchor:start;dominant-baseline:auto"/>
  <path d="M50 121 Q50 112 60 112 Q70 112 70 121 L70 130 Q70 133 60 133 Q50 133 50 130 Z" fill="#F58220" style="fill:rgb(245, 130, 32);stroke:none;color:rgb(255, 255, 255);stroke-width:1px;stroke-linecap:butt;stroke-linejoin:miter;opacity:1;font-family:&quot;Anthropic Sans&quot;, -apple-system, &quot;system-ui&quot;, &quot;Segoe UI&quot;, sans-serif;font-size:16px;font-weight:400;text-anchor:start;dominant-baseline:auto"/>
  <!-- Voter 2 x=98 NDP -->
  <circle cx="98" cy="100" r="7" fill="#F58220" style="fill:rgb(245, 130, 32);stroke:none;color:rgb(255, 255, 255);stroke-width:1px;stroke-linecap:butt;stroke-linejoin:miter;opacity:1;font-family:&quot;Anthropic Sans&quot;, -apple-system, &quot;system-ui&quot;, &quot;Segoe UI&quot;, sans-serif;font-size:16px;font-weight:400;text-anchor:start;dominant-baseline:auto"/>
  <path d="M88 121 Q88 112 98 112 Q108 112 108 121 L108 130 Q108 133 98 133 Q88 133 88 130 Z" fill="#F58220" style="fill:rgb(245, 130, 32);stroke:none;color:rgb(255, 255, 255);stroke-width:1px;stroke-linecap:butt;stroke-linejoin:miter;opacity:1;font-family:&quot;Anthropic Sans&quot;, -apple-system, &quot;system-ui&quot;, &quot;Segoe UI&quot;, sans-serif;font-size:16px;font-weight:400;text-anchor:start;dominant-baseline:auto"/>
  <!-- Voter 3 x=136 NDP -->
  <circle cx="136" cy="100" r="7" fill="#F58220" style="fill:rgb(245, 130, 32);stroke:none;color:rgb(255, 255, 255);stroke-width:1px;stroke-linecap:butt;stroke-linejoin:miter;opacity:1;font-family:&quot;Anthropic Sans&quot;, -apple-system, &quot;system-ui&quot;, &quot;Segoe UI&quot;, sans-serif;font-size:16px;font-weight:400;text-anchor:start;dominant-baseline:auto"/>
  <path d="M126 121 Q126 112 136 112 Q146 112 146 121 L146 130 Q146 133 136 133 Q126 133 126 130 Z" fill="#F58220" style="fill:rgb(245, 130, 32);stroke:none;color:rgb(255, 255, 255);stroke-width:1px;stroke-linecap:butt;stroke-linejoin:miter;opacity:1;font-family:&quot;Anthropic Sans&quot;, -apple-system, &quot;system-ui&quot;, &quot;Segoe UI&quot;, sans-serif;font-size:16px;font-weight:400;text-anchor:start;dominant-baseline:auto"/>
  <!-- Voter 4 x=174 Green -->
  <circle cx="174" cy="100" r="7" fill="#3D9B35" style="fill:rgb(61, 155, 53);stroke:none;color:rgb(255, 255, 255);stroke-width:1px;stroke-linecap:butt;stroke-linejoin:miter;opacity:1;font-family:&quot;Anthropic Sans&quot;, -apple-system, &quot;system-ui&quot;, &quot;Segoe UI&quot;, sans-serif;font-size:16px;font-weight:400;text-anchor:start;dominant-baseline:auto"/>
  <path d="M164 121 Q164 112 174 112 Q184 112 184 121 L184 130 Q184 133 174 133 Q164 133 164 130 Z" fill="#3D9B35" style="fill:rgb(61, 155, 53);stroke:none;color:rgb(255, 255, 255);stroke-width:1px;stroke-linecap:butt;stroke-linejoin:miter;opacity:1;font-family:&quot;Anthropic Sans&quot;, -apple-system, &quot;system-ui&quot;, &quot;Segoe UI&quot;, sans-serif;font-size:16px;font-weight:400;text-anchor:start;dominant-baseline:auto"/>
  <!-- Voter 5 x=210 Green -->
  <circle cx="210" cy="100" r="7" fill="#3D9B35" style="fill:rgb(61, 155, 53);stroke:none;color:rgb(255, 255, 255);stroke-width:1px;stroke-linecap:butt;stroke-linejoin:miter;opacity:1;font-family:&quot;Anthropic Sans&quot;, -apple-system, &quot;system-ui&quot;, &quot;Segoe UI&quot;, sans-serif;font-size:16px;font-weight:400;text-anchor:start;dominant-baseline:auto"/>
  <path d="M200 121 Q200 112 210 112 Q220 112 220 121 L220 130 Q220 133 210 133 Q200 133 200 130 Z" fill="#3D9B35" style="fill:rgb(61, 155, 53);stroke:none;color:rgb(255, 255, 255);stroke-width:1px;stroke-linecap:butt;stroke-linejoin:miter;opacity:1;font-family:&quot;Anthropic Sans&quot;, -apple-system, &quot;system-ui&quot;, &quot;Segoe UI&quot;, sans-serif;font-size:16px;font-weight:400;text-anchor:start;dominant-baseline:auto"/>
  <!-- Voter 6 x=245 Lib -->
  <circle cx="245" cy="100" r="7" fill="#d71920" style="fill:rgb(215, 25, 32);stroke:none;color:rgb(255, 255, 255);stroke-width:1px;stroke-linecap:butt;stroke-linejoin:miter;opacity:1;font-family:&quot;Anthropic Sans&quot;, -apple-system, &quot;system-ui&quot;, &quot;Segoe UI&quot;, sans-serif;font-size:16px;font-weight:400;text-anchor:start;dominant-baseline:auto"/>
  <path d="M235 121 Q235 112 245 112 Q255 112 255 121 L255 130 Q255 133 245 133 Q235 133 235 130 Z" fill="#d71920" style="fill:rgb(215, 25, 32);stroke:none;color:rgb(255, 255, 255);stroke-width:1px;stroke-linecap:butt;stroke-linejoin:miter;opacity:1;font-family:&quot;Anthropic Sans&quot;, -apple-system, &quot;system-ui&quot;, &quot;Segoe UI&quot;, sans-serif;font-size:16px;font-weight:400;text-anchor:start;dominant-baseline:auto"/>
  <!-- Voter 7 x=278 Lib -->
  <circle cx="278" cy="100" r="7" fill="#d71920" style="fill:rgb(215, 25, 32);stroke:none;color:rgb(255, 255, 255);stroke-width:1px;stroke-linecap:butt;stroke-linejoin:miter;opacity:1;font-family:&quot;Anthropic Sans&quot;, -apple-system, &quot;system-ui&quot;, &quot;Segoe UI&quot;, sans-serif;font-size:16px;font-weight:400;text-anchor:start;dominant-baseline:auto"/>
  <path d="M268 121 Q268 112 278 112 Q288 112 288 121 L288 130 Q288 133 278 133 Q268 133 268 130 Z" fill="#d71920" style="fill:rgb(215, 25, 32);stroke:none;color:rgb(255, 255, 255);stroke-width:1px;stroke-linecap:butt;stroke-linejoin:miter;opacity:1;font-family:&quot;Anthropic Sans&quot;, -apple-system, &quot;system-ui&quot;, &quot;Segoe UI&quot;, sans-serif;font-size:16px;font-weight:400;text-anchor:start;dominant-baseline:auto"/>
  <!-- Voter 8 x=313 Lib MEDIAN -->
  <circle cx="313" cy="100" r="7" fill="#d71920" style="fill:rgb(215, 25, 32);stroke:none;color:rgb(255, 255, 255);stroke-width:1px;stroke-linecap:butt;stroke-linejoin:miter;opacity:1;font-family:&quot;Anthropic Sans&quot;, -apple-system, &quot;system-ui&quot;, &quot;Segoe UI&quot;, sans-serif;font-size:16px;font-weight:400;text-anchor:start;dominant-baseline:auto"/>
  <path d="M303 121 Q303 112 313 112 Q323 112 323 121 L323 130 Q323 133 313 133 Q303 133 303 130 Z" fill="#d71920" style="fill:rgb(215, 25, 32);stroke:none;color:rgb(255, 255, 255);stroke-width:1px;stroke-linecap:butt;stroke-linejoin:miter;opacity:1;font-family:&quot;Anthropic Sans&quot;, -apple-system, &quot;system-ui&quot;, &quot;Segoe UI&quot;, sans-serif;font-size:16px;font-weight:400;text-anchor:start;dominant-baseline:auto"/>
  <text x="313" y="148" text-anchor="middle" font-size="11" font-weight="500" fill="#555" font-family="sans-serif" style="fill:rgb(85, 85, 85);stroke:none;color:rgb(255, 255, 255);stroke-width:1px;stroke-linecap:butt;stroke-linejoin:miter;opacity:1;font-family:sans-serif;font-size:11px;font-weight:500;text-anchor:middle;dominant-baseline:auto">M</text>
  <!-- Voter 9 x=347 Lib -->
  <circle cx="347" cy="100" r="7" fill="#d71920" style="fill:rgb(215, 25, 32);stroke:none;color:rgb(255, 255, 255);stroke-width:1px;stroke-linecap:butt;stroke-linejoin:miter;opacity:1;font-family:&quot;Anthropic Sans&quot;, -apple-system, &quot;system-ui&quot;, &quot;Segoe UI&quot;, sans-serif;font-size:16px;font-weight:400;text-anchor:start;dominant-baseline:auto"/>
  <path d="M337 121 Q337 112 347 112 Q357 112 357 121 L357 130 Q357 133 347 133 Q337 133 337 130 Z" fill="#d71920" style="fill:rgb(215, 25, 32);stroke:none;color:rgb(255, 255, 255);stroke-width:1px;stroke-linecap:butt;stroke-linejoin:miter;opacity:1;font-family:&quot;Anthropic Sans&quot;, -apple-system, &quot;system-ui&quot;, &quot;Segoe UI&quot;, sans-serif;font-size:16px;font-weight:400;text-anchor:start;dominant-baseline:auto"/>
  <!-- Voter 10 x=382 Con -->
  <circle cx="382" cy="100" r="7" fill="#003F72" style="fill:rgb(0, 63, 114);stroke:none;color:rgb(255, 255, 255);stroke-width:1px;stroke-linecap:butt;stroke-linejoin:miter;opacity:1;font-family:&quot;Anthropic Sans&quot;, -apple-system, &quot;system-ui&quot;, &quot;Segoe UI&quot;, sans-serif;font-size:16px;font-weight:400;text-anchor:start;dominant-baseline:auto"/>
  <path d="M372 121 Q372 112 382 112 Q392 112 392 121 L392 130 Q392 133 382 133 Q372 133 372 130 Z" fill="#003F72" style="fill:rgb(0, 63, 114);stroke:none;color:rgb(255, 255, 255);stroke-width:1px;stroke-linecap:butt;stroke-linejoin:miter;opacity:1;font-family:&quot;Anthropic Sans&quot;, -apple-system, &quot;system-ui&quot;, &quot;Segoe UI&quot;, sans-serif;font-size:16px;font-weight:400;text-anchor:start;dominant-baseline:auto"/>
  <!-- Voter 11 x=418 Con -->
  <circle cx="418" cy="100" r="7" fill="#003F72" style="fill:rgb(0, 63, 114);stroke:none;color:rgb(255, 255, 255);stroke-width:1px;stroke-linecap:butt;stroke-linejoin:miter;opacity:1;font-family:&quot;Anthropic Sans&quot;, -apple-system, &quot;system-ui&quot;, &quot;Segoe UI&quot;, sans-serif;font-size:16px;font-weight:400;text-anchor:start;dominant-baseline:auto"/>
  <path d="M408 121 Q408 112 418 112 Q428 112 428 121 L428 130 Q428 133 418 133 Q408 133 408 130 Z" fill="#003F72" style="fill:rgb(0, 63, 114);stroke:none;color:rgb(255, 255, 255);stroke-width:1px;stroke-linecap:butt;stroke-linejoin:miter;opacity:1;font-family:&quot;Anthropic Sans&quot;, -apple-system, &quot;system-ui&quot;, &quot;Segoe UI&quot;, sans-serif;font-size:16px;font-weight:400;text-anchor:start;dominant-baseline:auto"/>
  <!-- Voter 12 x=455 Con -->
  <circle cx="455" cy="100" r="7" fill="#003F72" style="fill:rgb(0, 63, 114);stroke:none;color:rgb(255, 255, 255);stroke-width:1px;stroke-linecap:butt;stroke-linejoin:miter;opacity:1;font-family:&quot;Anthropic Sans&quot;, -apple-system, &quot;system-ui&quot;, &quot;Segoe UI&quot;, sans-serif;font-size:16px;font-weight:400;text-anchor:start;dominant-baseline:auto"/>
  <path d="M445 121 Q445 112 455 112 Q465 112 465 121 L465 130 Q465 133 455 133 Q445 133 445 130 Z" fill="#003F72" style="fill:rgb(0, 63, 114);stroke:none;color:rgb(255, 255, 255);stroke-width:1px;stroke-linecap:butt;stroke-linejoin:miter;opacity:1;font-family:&quot;Anthropic Sans&quot;, -apple-system, &quot;system-ui&quot;, &quot;Segoe UI&quot;, sans-serif;font-size:16px;font-weight:400;text-anchor:start;dominant-baseline:auto"/>
  <!-- Voter 13 x=492 Con -->
  <circle cx="492" cy="100" r="7" fill="#003F72" style="fill:rgb(0, 63, 114);stroke:none;color:rgb(255, 255, 255);stroke-width:1px;stroke-linecap:butt;stroke-linejoin:miter;opacity:1;font-family:&quot;Anthropic Sans&quot;, -apple-system, &quot;system-ui&quot;, &quot;Segoe UI&quot;, sans-serif;font-size:16px;font-weight:400;text-anchor:start;dominant-baseline:auto"/>
  <path d="M482 121 Q482 112 492 112 Q502 112 502 121 L502 130 Q502 133 492 133 Q482 133 482 130 Z" fill="#003F72" style="fill:rgb(0, 63, 114);stroke:none;color:rgb(255, 255, 255);stroke-width:1px;stroke-linecap:butt;stroke-linejoin:miter;opacity:1;font-family:&quot;Anthropic Sans&quot;, -apple-system, &quot;system-ui&quot;, &quot;Segoe UI&quot;, sans-serif;font-size:16px;font-weight:400;text-anchor:start;dominant-baseline:auto"/>
  <!-- Voter 14 x=530 PPC -->
  <circle cx="530" cy="100" r="7" fill="#6d04b8" style="fill:rgb(109, 4, 184);stroke:none;color:rgb(255, 255, 255);stroke-width:1px;stroke-linecap:butt;stroke-linejoin:miter;opacity:1;font-family:&quot;Anthropic Sans&quot;, -apple-system, &quot;system-ui&quot;, &quot;Segoe UI&quot;, sans-serif;font-size:16px;font-weight:400;text-anchor:start;dominant-baseline:auto"/>
  <path d="M520 121 Q520 112 530 112 Q540 112 540 121 L540 130 Q540 133 530 133 Q520 133 520 130 Z" fill="#6d04b8" style="fill:rgb(109, 4, 184);stroke:none;color:rgb(255, 255, 255);stroke-width:1px;stroke-linecap:butt;stroke-linejoin:miter;opacity:1;font-family:&quot;Anthropic Sans&quot;, -apple-system, &quot;system-ui&quot;, &quot;Segoe UI&quot;, sans-serif;font-size:16px;font-weight:400;text-anchor:start;dominant-baseline:auto"/>
  <!-- Voter 15 x=568 PPC -->
  <circle cx="568" cy="100" r="7" fill="#6d04b8" style="fill:rgb(109, 4, 184);stroke:none;color:rgb(255, 255, 255);stroke-width:1px;stroke-linecap:butt;stroke-linejoin:miter;opacity:1;font-family:&quot;Anthropic Sans&quot;, -apple-system, &quot;system-ui&quot;, &quot;Segoe UI&quot;, sans-serif;font-size:16px;font-weight:400;text-anchor:start;dominant-baseline:auto"/>
  <path d="M558 121 Q558 112 568 112 Q578 112 578 121 L578 130 Q578 133 568 133 Q558 133 558 130 Z" fill="#6d04b8" style="fill:rgb(109, 4, 184);stroke:none;color:rgb(255, 255, 255);stroke-width:1px;stroke-linecap:butt;stroke-linejoin:miter;opacity:1;font-family:&quot;Anthropic Sans&quot;, -apple-system, &quot;system-ui&quot;, &quot;Segoe UI&quot;, sans-serif;font-size:16px;font-weight:400;text-anchor:start;dominant-baseline:auto"/>

</svg>